<svg width="17.000000" height="17.000000" viewBox="0 0 17 17" fill="none" xmlns="http://www.w3.org/2000/svg" xmlns:xlink="http://www.w3.org/1999/xlink">
	<desc>
			Created with Pixso.
	</desc>
	<defs>
		<clipPath id="clip1_100">
			<rect id="IMAGE" rx="0.000000" width="16.000000" height="16.000000" transform="translate(0.500000 0.500000)" fill="white" fill-opacity="0"/>
		</clipPath>
	</defs>
	<g clip-path="url(#clip1_100)">
		<path id="Vector" d="M14.87 0L2.12 0C0.95 0 0 0.95 0 2.12L0 14.87C0 16.04 0.95 17 2.12 17L8.57 17L8.57 10.9L6.53 10.9L6.53 8.24L8.57 8.24L8.57 6.91C8.57 4.86 10.08 3.26 12.01 3.26L13.89 3.26L13.89 6.26L12.21 6.26C11.77 6.26 11.64 6.51 11.64 6.86L11.64 8.24L13.89 8.24L13.89 10.9L11.64 10.9L11.64 17L14.87 17C16.04 17 17 16.04 17 14.87L17 2.12C17 0.95 16.04 0 14.87 0Z" fill="#000000" fill-opacity="1.000000" fill-rule="nonzero"/>
	</g>
</svg>
