<svg width="17.000000" height="17.000000" viewBox="0 0 17 17" fill="none" xmlns="http://www.w3.org/2000/svg" xmlns:xlink="http://www.w3.org/1999/xlink">
	<desc>
			Created with Pixso.
	</desc>
	<defs>
		<clipPath id="clip1_146">
			<rect id="IMAGE" rx="0.000000" width="16.000000" height="16.000000" transform="translate(0.500000 0.500000)" fill="white" fill-opacity="0"/>
		</clipPath>
	</defs>
	<g clip-path="url(#clip1_146)">
		<path id="Vector" d="M7.92 5.98C6.69 3.8 5.38 2.02 5.28 1.89C3.3 2.82 1.82 4.65 1.36 6.85C1.55 6.85 4.51 6.89 7.92 5.98ZM8.8 8.37C8.9 8.34 8.99 8.31 9.08 8.28C8.91 7.88 8.71 7.47 8.51 7.07C4.85 8.17 1.34 8.09 1.21 8.09C1.21 8.16 1.21 8.24 1.21 8.31C1.21 10.14 1.9 11.8 3.03 13.06C3.03 13.06 3.03 13.05 3.03 13.05C3.03 13.05 4.97 9.61 8.8 8.37ZM3.95 13.91L3.95 13.91C3.9 13.87 3.84 13.83 3.79 13.79C3.88 13.86 3.95 13.91 3.95 13.91ZM6.61 1.42C6.6 1.42 6.6 1.42 6.59 1.42C6.6 1.42 6.61 1.42 6.61 1.42ZM13 2.98C11.75 1.88 10.11 1.21 8.31 1.21C7.73 1.21 7.18 1.28 6.64 1.41C6.75 1.55 8.08 3.32 9.29 5.55C11.97 4.55 12.98 3.01 13 2.98ZM8.31 16.63C3.72 16.63 0 12.9 0 8.31C0 3.72 3.72 0 8.31 0C12.9 0 16.63 3.72 16.63 8.31C16.63 12.9 12.9 16.63 8.31 16.63ZM9.52 9.47C5.35 10.93 3.97 13.85 3.95 13.91C5.15 14.85 6.66 15.42 8.31 15.42C9.29 15.42 10.23 15.21 11.08 14.85C10.98 14.23 10.56 12.06 9.57 9.46C9.55 9.46 9.54 9.47 9.52 9.47ZM9.84 6.61C10.01 6.95 10.16 7.29 10.31 7.64C10.37 7.76 10.42 7.89 10.47 8.01C12.92 7.7 15.33 8.22 15.41 8.24C15.4 6.55 14.79 5.01 13.8 3.8C13.78 3.82 12.64 5.47 9.84 6.61ZM10.9 9.13C11.83 11.69 12.21 13.78 12.28 14.2C13.87 13.13 15.01 11.42 15.33 9.44C15.18 9.39 13.19 8.76 10.9 9.13Z" fill="#000000" fill-opacity="1.000000" fill-rule="nonzero"/>
	</g>
</svg>
