<svg width="17.000000" height="17.000000" viewBox="0 0 17 17" fill="none" xmlns="http://www.w3.org/2000/svg" xmlns:xlink="http://www.w3.org/1999/xlink">
	<desc>
			Created with Pixso.
	</desc>
	<defs>
		<clipPath id="clip1_150">
			<rect id="IMAGE" rx="0.000000" width="16.000000" height="16.000000" transform="translate(0.500000 0.500000)" fill="white" fill-opacity="0"/>
		</clipPath>
	</defs>
	<g clip-path="url(#clip1_150)">
		<path id="Vector" d="M13.63 8.49C13.63 11.33 11.33 13.63 8.49 13.63C5.66 13.63 3.35 11.33 3.35 8.49C3.35 8.16 3.39 7.83 3.45 7.51L0 7.51L0 14.34C0 15.8 1.18 16.99 2.65 16.99L14.34 16.99C15.8 16.99 16.99 15.8 16.99 14.34L16.99 7.51L13.54 7.51C13.6 7.83 13.63 8.16 13.63 8.49ZM14.34 0L2.65 0C1.18 0 0 1.18 0 2.65L0 5.53L4.3 5.53C5.23 4.21 6.76 3.35 8.49 3.35C10.23 3.35 11.76 4.21 12.69 5.53L16.99 5.53L16.99 2.65C16.99 1.18 15.8 0 14.34 0ZM15.64 3.28C15.64 3.54 15.42 3.75 15.16 3.75L13.74 3.75C13.48 3.75 13.26 3.54 13.26 3.28L13.26 1.85C13.26 1.59 13.48 1.38 13.74 1.38L15.16 1.38C15.42 1.38 15.64 1.59 15.64 1.85L15.64 3.28ZM11.66 8.49C11.66 6.75 10.24 5.33 8.49 5.33C6.75 5.33 5.33 6.75 5.33 8.49C5.33 10.24 6.75 11.66 8.49 11.66C10.24 11.66 11.66 10.24 11.66 8.49Z" fill="#000000" fill-opacity="1.000000" fill-rule="nonzero"/>
	</g>
</svg>
