<svg width="27.000000" height="17.000000" viewBox="0 0 27 17" fill="none" xmlns="http://www.w3.org/2000/svg" xmlns:xlink="http://www.w3.org/1999/xlink">
	<desc>
			Created with Pixso.
	</desc>
	<defs>
		<clipPath id="clip1_108">
			<rect id="IMAGE" rx="0.000000" width="16.000000" height="16.000000" transform="translate(0.500000 0.500000)" fill="white" fill-opacity="0"/>
		</clipPath>
	</defs>
	<g clip-path="url(#clip1_108)">
		<path id="Vector" d="M3.84 1.81C3.84 2.82 3.1 3.63 1.88 3.63C0.74 3.63 0 2.82 0 1.81C0 0.78 0.76 0 1.93 0C3.1 0 3.82 0.78 3.84 1.81ZM0.09 16.76L0.09 5.06L3.72 5.06L3.72 16.76L0.09 16.76L0.09 16.76Z" fill="#000000" fill-opacity="1.000000" fill-rule="nonzero"/>
		<path id="Vector" d="M5.9 8.8C5.9 7.34 5.85 6.12 5.81 5.07L8.96 5.07L9.13 6.69L9.2 6.69C9.68 5.93 10.85 4.8 12.81 4.8C15.2 4.8 17 6.4 17 9.85L17 16.76L13.36 16.76L13.36 10.28C13.36 8.77 12.84 7.74 11.52 7.74C10.51 7.74 9.92 8.44 9.65 9.11C9.56 9.34 9.53 9.68 9.53 10.01L9.53 16.76L5.9 16.76L5.9 8.8Z" fill="#000000" fill-opacity="1.000000" fill-rule="nonzero"/>
	</g>
</svg>
