<svg width="28.000000" height="18.000000" viewBox="0 0 28 18" fill="none" xmlns="http://www.w3.org/2000/svg" xmlns:xlink="http://www.w3.org/1999/xlink">
	<desc>
			Created with Pixso.
	</desc>
	<defs>
		<clipPath id="clip1_104">
			<rect id="IMAGE" rx="0.000000" width="17.000000" height="17.000000" transform="translate(0.500000 0.500000)" fill="white" fill-opacity="0"/>
		</clipPath>
	</defs>
	<g clip-path="url(#clip1_104)">
		<path id="Vector" d="M18 3.73C17.33 4.02 16.62 4.22 15.87 4.31C16.64 3.85 17.22 3.13 17.5 2.27C16.79 2.69 15.99 3 15.15 3.16C14.48 2.44 13.52 2 12.46 2C10.42 2 8.76 3.65 8.76 5.69C8.76 5.98 8.8 6.26 8.86 6.53C5.79 6.37 3.07 4.9 1.25 2.67C0.93 3.22 0.75 3.85 0.75 4.53C0.75 5.81 1.4 6.94 2.39 7.6C1.79 7.58 1.22 7.42 0.72 7.14C0.72 7.15 0.72 7.17 0.72 7.18C0.72 8.97 1.99 10.47 3.68 10.81C3.37 10.89 3.04 10.93 2.71 10.93C2.47 10.93 2.24 10.91 2.01 10.87C2.48 12.34 3.85 13.41 5.46 13.43C4.2 14.43 2.61 15.02 0.88 15.02C0.58 15.02 0.28 15 0 14.96C1.63 16.01 3.57 16.62 5.66 16.62C12.45 16.62 16.16 10.99 16.16 6.12C16.16 5.95 16.16 5.79 16.15 5.64C16.87 5.12 17.5 4.47 18 3.73Z" fill="#000000" fill-opacity="1.000000" fill-rule="nonzero"/>
	</g>
</svg>
