<svg width="16.889343" height="11.144165" viewBox="0 0 16.8893 11.1442" fill="none" xmlns="http://www.w3.org/2000/svg" xmlns:xlink="http://www.w3.org/1999/xlink">
	<desc>
			Created with Pixso.
	</desc>
	<defs/>
	<path id="Vector" d="M6.81 4.98C6.81 4.98 8.41 4.85 8.41 2.9C8.41 0.95 7.1 0 5.45 0L0 0L0 10.91L5.45 10.91C5.45 10.91 8.77 11.02 8.77 7.68C8.77 7.68 8.92 4.98 6.81 4.98ZM2.4 1.93L5.45 1.93C5.45 1.93 6.19 1.93 6.19 3.07C6.19 4.21 5.75 4.37 5.26 4.37L2.4 4.37L2.4 1.93ZM5.29 8.97L2.4 8.97L2.4 6.05L5.45 6.05C5.45 6.05 6.55 6.04 6.55 7.55C6.55 8.83 5.72 8.96 5.29 8.97ZM13.21 2.77C9.18 2.77 9.19 6.96 9.19 6.96C9.19 6.96 8.91 11.14 13.21 11.14C13.21 11.14 16.79 11.35 16.79 8.23L14.95 8.23C14.95 8.23 15.01 9.41 13.27 9.41C13.27 9.41 11.43 9.54 11.43 7.51L16.86 7.51C16.86 7.51 17.45 2.77 13.21 2.77ZM14.85 6.05L11.41 6.05C11.41 6.05 11.63 4.37 13.25 4.37C14.87 4.37 14.85 6.05 14.85 6.05ZM15.28 0.64L10.96 0.64L10.96 1.98L15.28 1.98L15.28 0.64Z" fill="#000000" fill-opacity="1.000000" fill-rule="nonzero"/>
</svg>
